# xmcd
#
# Track frame offsets: 
#        150
#        14740
#        28240
#        41816
#        55062
#        69317
#        83924
#        99261
#        112155
#        124747
#        137992
#        152701
#        168342
#        181849
#        195398
#        211378
#        223346
#        236320
#        250498
#        264223
#        277901
#        291778
#
# Disc length: 4099 seconds
#
# Revision: 0
# Processed by: cddbd v1.5.2PL0 Copyright (c) Steve Scherf et al.
# Submitted via: ExactAudioCopy v0.99pb5
#
DISCID=43100116
DTITLE=Bessie Smith - Down Hearted Blues
DYEAR=1900
DGENRE=Blues
TTITLE0=I'm Down in the Dumps
TTITLE1=Blue Spirit Blues
TTITLE2=Kitchen Man
TTITLE3=Foolish Man Blues
TTITLE4=Thinking Blues
TTITLE5=Devil's Gonna Get You
TTITLE6=Send Me to the 'Lectric Chair
TTITLE7=I'm Wild at that Thing
TTITLE8=You've Got to Give Me Some
TTITLE9=Standing in the Rain Blues
TTITLE10=He's Got Me Goin'
TTITLE11=Do Your Duty
TTITLE12=Dyin' by the Hour
TTITLE13=Lock and Key
TTITLE14=Gimme a Pigfoot
TTITLE15=Take Me for a Buggy Ride
TTITLE16=I Used to Be Your Sweet Mama
TTITLE17=Trombone Cholly
TTITLE18=Alexander's Ragtime Band
TTITLE19=A Good Man is Hard to Find
TTITLE20=Gulf Coast Blues
TTITLE21=Down Hearted Blues
EXTD=
EXTT0=
EXTT1=
EXTT2=
EXTT3=
EXTT4=
EXTT5=
EXTT6=
EXTT7=
EXTT8=
EXTT9=
EXTT10=
EXTT11=
EXTT12=
EXTT13=
EXTT14=
EXTT15=
EXTT16=
EXTT17=
EXTT18=
EXTT19=
EXTT20=
EXTT21=
PLAYORDER=
